<svg xmlns="http://www.w3.org/2000/svg" width="56" height="40" viewBox="0 0 56 40">
  <g id="dashboard" transform="translate(-4 -12)">
    <path id="Tracé_18" data-name="Tracé 18" d="M57,12H7a3,3,0,0,0-3,3V49a3,3,0,0,0,3,3H57a3,3,0,0,0,3-3V15a3,3,0,0,0-3-3ZM6,15a1,1,0,0,1,1-1H57a1,1,0,0,1,1,1v3H6ZM58,49a1,1,0,0,1-1,1H7a1,1,0,0,1-1-1V20H58Z" fill="#f9f9f9"/>
    <path id="Tracé_19" data-name="Tracé 19" d="M55.01,15H55a1,1,0,1,0,.01,0ZM51,15h-.01A1,1,0,1,0,51,15Zm-4,0H47A1,1,0,1,0,47,15ZM9,24h7a1,1,0,0,0,0-2H9a1,1,0,0,0,0,2Zm0,4h7a1,1,0,0,0,0-2H9a1,1,0,0,0,0,2Zm0,4h7a1,1,0,0,0,0-2H9a1,1,0,0,0,0,2Zm0,4h7a1,1,0,0,0,0-2H9a1,1,0,0,0,0,2Zm30-2h8.819a1,1,0,0,0,.983-1.181,11.956,11.956,0,0,0-3.056-6.012L46.625,25H51a1,1,0,0,0,0-2H46a1,1,0,0,0-.9.563l-.9,1.85a11.916,11.916,0,0,0-5.02-2.215A1,1,0,0,0,38,24.181V33a1,1,0,0,0,1,1Zm1-8.542A10.066,10.066,0,0,1,46.542,32H40ZM55,25h.01A1,1,0,1,0,55,25Z" fill="#f9f9f9"/>
    <path id="Tracé_20" data-name="Tracé 20" d="M55,26H52a1,1,0,0,0,0,2h3a1,1,0,0,0,0-2ZM27.57,42.563,26.384,45H22.01a1,1,0,0,0,0,2h5a1,1,0,0,0,.9-.563L29.094,44A11.98,11.98,0,0,0,48.8,37.181,1,1,0,0,0,47.819,36H36V24.181a1,1,0,0,0-1.181-.983,11.985,11.985,0,0,0-7.186,19.283.926.926,0,0,0-.063.082ZM34,25.457V37a1,1,0,0,0,1,1H46.543A10,10,0,1,1,34,25.457ZM18.01,47a1,1,0,0,0,0-2H18a1,1,0,0,0,.01,2Z" fill="#f9f9f9"/>
    <path id="Tracé_21" data-name="Tracé 21" d="M18.01,44h3a1,1,0,0,0,0-2h-3a1,1,0,0,0,0,2Z" fill="#f9f9f9"/>
    <path id="Tracé_29" data-name="Tracé 29" d="M5.618,16.343H58.727" transform="translate(-0.118 -0.343)" fill="none" stroke="#f9f9f9" stroke-width="5"/>
    <circle id="Ellipse_202" data-name="Ellipse 202" cx="1" cy="1" r="1" transform="translate(46 15)" fill="#0e5907"/>
    <circle id="Ellipse_203" data-name="Ellipse 203" cx="1" cy="1" r="1" transform="translate(50 15)" fill="#0e5907"/>
    <circle id="Ellipse_204" data-name="Ellipse 204" cx="1" cy="1" r="1" transform="translate(54 15)" fill="#0e5907"/>
  </g>
</svg>
