<svg xmlns="http://www.w3.org/2000/svg" width="38.588" height="48" viewBox="0 0 38.588 48">
  <g id="farmer" transform="translate(-51 -1)">
    <path id="Tracé_13" data-name="Tracé 13" d="M82.059,30.176H75.471V27.768a9.885,9.885,0,0,0,4.706-8.415V18.9h.934a2.833,2.833,0,0,0,2.629-3.878A2.823,2.823,0,0,0,83,9.471H81.8l-1.966-5.9A3.76,3.76,0,0,0,76.259,1H64.329a3.76,3.76,0,0,0-3.572,2.574l-1.965,5.9h-1.2a2.823,2.823,0,0,0-.739,5.548A2.833,2.833,0,0,0,59.478,18.9h.934v.456a9.867,9.867,0,0,0,4.706,8.421v2.4H58.529A7.538,7.538,0,0,0,51,37.706V48.059a.941.941,0,0,0,.941.941H88.647a.941.941,0,0,0,.941-.941V37.706A7.527,7.527,0,0,0,82.059,30.176ZM59.471,39.588H81.118a.942.942,0,0,1,.941.941v6.588H58.529V40.529A.942.942,0,0,1,59.471,39.588ZM81.11,17.015h-.934v-1.9h.934a.948.948,0,0,1,0,1.9ZM57.588,11.353H83a.941.941,0,1,1,0,1.882H57.588a.941.941,0,1,1,0-1.882Zm1.89,5.662a.948.948,0,0,1,0-1.9h.934v1.9Zm2.816,2.338V15.118h16v4.235a8,8,0,1,1-16,0ZM73.588,28.67v2.025l-3.294,2.928L67,30.695V28.673A9.9,9.9,0,0,0,73.588,28.67ZM65.7,32.059l3.968,3.527a.941.941,0,0,0,1.251,0l3.968-3.527h1.525v5.647H64.176V32.059ZM52.882,37.706a5.653,5.653,0,0,1,5.647-5.647v5.808a2.828,2.828,0,0,0-1.882,2.662v6.588H52.882Zm34.824,9.412H83.941V40.529a2.828,2.828,0,0,0-1.882-2.662V32.059a5.645,5.645,0,0,1,5.647,5.647Z" fill="#f9f9f9"/>
    <path id="Tracé_14" data-name="Tracé 14" d="M161.941,198.294h16a.941.941,0,0,0,0-1.882h-16a.941.941,0,0,0,0,1.882Zm10.165-20.141a.941.941,0,1,0-1.506-1.129.823.823,0,0,1-1.318,0,.941.941,0,1,0-1.506,1.129A2.7,2.7,0,0,0,172.106,178.153Zm-5.459-4.329a.941.941,0,0,0,.941-.941v-.941a.941.941,0,0,0-1.882,0v.941A.941.941,0,0,0,166.647,173.824Zm6.588,0a.941.941,0,0,0,.941-.941v-.941a.941.941,0,0,0-1.882,0v.941A.941.941,0,0,0,173.235,173.824Z" transform="translate(-99.647 -154)" fill="#f9f9f9"/>
  </g>
</svg>
