<svg xmlns="http://www.w3.org/2000/svg" width="39.74" height="44.872" viewBox="0 0 39.74 44.872">
  <g id="Groupe_3206" data-name="Groupe 3206" transform="translate(1 1)">
    <path id="Tracé_15" data-name="Tracé 15" d="M48.887,28A3.861,3.861,0,0,0,46.8,24.578a4.775,4.775,0,0,1-2.214-2.394.992.992,0,0,0-.142-.348,4.788,4.788,0,0,1-.129-3.308A3.861,3.861,0,0,0,39.479,13.7a4.8,4.8,0,0,1-3.308-.142l-.348-.142a4.6,4.6,0,0,1-2.381-2.214,3.861,3.861,0,0,0-6.86,0A4.6,4.6,0,0,1,24.2,13.419l-.348.142a4.8,4.8,0,0,1-3.308.142,3.861,3.861,0,0,0-4.826,4.826,4.788,4.788,0,0,1-.142,3.308l-.142.348a4.723,4.723,0,0,1-2.214,2.394,3.861,3.861,0,0,0,0,6.847,4.646,4.646,0,0,1,2.2,2.381,1.051,1.051,0,0,0,.142.36,4.762,4.762,0,0,1,.142,3.295A3.861,3.861,0,0,0,20.572,42.3a4.8,4.8,0,0,1,3.308.129l.347.154a4.62,4.62,0,0,1,2.381,2.2,3.861,3.861,0,0,0,6.86,0,4.62,4.62,0,0,1,2.381-2.2l.347-.154A4.8,4.8,0,0,1,39.5,42.3a3.861,3.861,0,0,0,4.839-4.839,4.762,4.762,0,0,1,.129-3.295c0-.116.1-.245.142-.36a4.7,4.7,0,0,1,2.214-2.381A3.861,3.861,0,0,0,48.887,28Z" transform="translate(-11.147 -9.118)" fill="none" stroke="#f9f9f9" stroke-width="2"/>
    <path id="Tracé_16" data-name="Tracé 16" d="M20.52,24.865,25,29.331,34.06,20.27" transform="translate(-8.457 -5.916)" fill="none" stroke="#f9f9f9" stroke-linecap="round" stroke-linejoin="round" stroke-width="2"/>
    <path id="Tracé_17" data-name="Tracé 17" d="M17.028,34.72l-3.694,6.924a.553.553,0,0,0,.592.8l5.238-1.081a.528.528,0,0,1,.579.257l1.647,2.729a.566.566,0,0,0,.978,0l3.514-6.989M41.25,34.913l3.591,6.744a.553.553,0,0,1-.592.8L39.01,41.374a.528.528,0,0,0-.579.257L36.784,44.36a.566.566,0,0,1-.978,0l-3.256-6.435" transform="translate(-10.537 -1.769)" fill="none" stroke="#f9f9f9" stroke-width="2"/>
    <path id="Tracé_27" data-name="Tracé 27" d="M740.349,203.994l-2.621,5v.908h4.554l1.85.607,1.4,1.2,2.06-2.711.686-3.443v-1.556l-2.746-.837h-4.465Z" transform="translate(-733.802 -169.926)" fill="#f9f9f9"/>
    <path id="Tracé_28" data-name="Tracé 28" d="M746.806,204.564l1.04,1.8.659,2.629v.908l-2.621-.908h-1.936l-1.847,1.515-1.4,1.2-2.06-2.711-1.728-2.629,1.042-2.37,2.746-.837h4.465Z" transform="translate(-714.728 -169.676)" fill="#f9f9f9"/>
  </g>
</svg>
