<svg xmlns="http://www.w3.org/2000/svg" width="59.999" height="48" viewBox="0 0 59.999 48">
  <g id="Groupe_3205" data-name="Groupe 3205" transform="translate(-129.001 -168)">
    <g id="farm" transform="translate(127.001 154)">
      <path id="Tracé_8" data-name="Tracé 8" d="M23,26a1,1,0,0,1-1-1V24A8,8,0,1,0,6,24v1a1,1,0,0,1-2,0V24a10,10,0,1,1,20,0v1A1,1,0,0,1,23,26Zm0,36H5a1,1,0,0,1-1-1V29a1,1,0,0,1,2,0V60H22V38a1,1,0,0,1,2,0V61A1,1,0,0,1,23,62Zm0-28.1a1,1,0,0,1-1-1V29a1,1,0,0,1,2,0v3.9A1,1,0,0,1,23,33.9Z" fill="#f9f9f9"/>
      <path id="Tracé_9" data-name="Tracé 9" d="M25,30H3a1,1,0,0,1-1-1V25a1,1,0,0,1,1-1H25a1,1,0,0,1,1,1v4A1,1,0,0,1,25,30ZM4,28H24V26H4ZM57,62H23a1,1,0,0,1-1-1V38a1,1,0,0,1,2,0V60H56V38a1,1,0,0,1,2,0V61A1,1,0,0,1,57,62Z" fill="#f9f9f9"/>
      <path id="Tracé_10" data-name="Tracé 10" d="M49,62a1,1,0,0,1-1-1V50H32V61a1,1,0,0,1-2,0V49a1,1,0,0,1,1-1H49a1,1,0,0,1,1,1V61A1,1,0,0,1,49,62Z" fill="#f9f9f9"/>
      <path id="Tracé_11" data-name="Tracé 11" d="M40,62a1,1,0,0,1-1-1V49a1,1,0,0,1,2,0V61A1,1,0,0,1,40,62Zm-9-7H23a1,1,0,0,1,0-2h8a1,1,0,0,1,0,2Zm26,0H49a1,1,0,0,1,0-2h8a1,1,0,0,1,0,2ZM34,46H30a1,1,0,0,1-1-1V39a1,1,0,0,1,1-1h4a1,1,0,0,1,1,1v6A1,1,0,0,1,34,46Zm-3-2h2V40H31Zm19,2H46a1,1,0,0,1-1-1V39a1,1,0,0,1,1-1h4a1,1,0,0,1,1,1v6A1,1,0,0,1,50,46Zm-3-2h2V40H47Z" fill="#f9f9f9"/>
      <path id="Tracé_12" data-name="Tracé 12" d="M59,40a1,1,0,0,1-.47-.12L40,30.13,21.47,39.88a.993.993,0,0,1-1.36-.43l-2-4a1,1,0,0,1,.43-1.34l21-11a1,1,0,0,1,.92,0l21,11a1,1,0,0,1,.43,1.34l-2,4a1,1,0,0,1-.58.5A1.12,1.12,0,0,1,59,40ZM40,28a1,1,0,0,1,.47.12l18.09,9.52,1.11-2.21L40,25.13,20.33,35.43l1.11,2.21,18.09-9.52A1,1,0,0,1,40,28ZM23,43H5a1,1,0,0,1,0-2H23a1,1,0,0,1,0,2Zm0,9H5a1,1,0,0,1,0-2H23a1,1,0,0,1,0,2Z" fill="#f9f9f9"/>
    </g>
    <path id="Tracé_25" data-name="Tracé 25" d="M148,190.24l19.1-9.9,18.595,9.9" fill="none" stroke="#f9f9f9" stroke-linecap="round" stroke-linejoin="round" stroke-width="4"/>
    <path id="Tracé_26" data-name="Tracé 26" d="M130.146,180.931h20.6" transform="translate(0.367)" fill="none" stroke="#f9f9f9" stroke-width="3"/>
    <path id="Soustraction_1" data-name="Soustraction 1" d="M18.945,10H1.055A9.137,9.137,0,0,1,1,9,9,9,0,1,1,19,9a9.141,9.141,0,0,1-.055,1Z" transform="translate(131 169)" fill="#f9f9f9"/>
  </g>
</svg>
