<svg xmlns="http://www.w3.org/2000/svg" width="29.628" height="31.438" viewBox="0 0 29.628 31.438">
  <g id="Groupe_6684" data-name="Groupe 6684" transform="translate(-1244.372 -463.562)">
    <g id="Ellipse_207" data-name="Ellipse 207" transform="translate(1249 470)" fill="none" stroke="#fff" stroke-width="2.2">
      <circle cx="12.5" cy="12.5" r="12.5" stroke="none"/>
      <circle cx="12.5" cy="12.5" r="11.4" fill="none"/>
    </g>
    <path id="Import" d="M14.651,14.21,5.922,11.988a.844.844,0,0,1-.633-.716.87.87,0,0,1,.438-.87L8.272,8.931Q8.11,8.62,7.93,8.319C6.739,6.255,4.242,2.809.869,2.861a.855.855,0,0,1-.758-.428,1.534,1.534,0,0,1-.085-.2.885.885,0,0,1,.416-.981A10.678,10.678,0,0,1,7.84.268,11.072,11.072,0,0,1,14.39,5.4L16.9,3.953A.87.87,0,0,1,17.868,4a.84.84,0,0,1,.306.9l-2.445,8.674a.889.889,0,0,1-.87.651.957.957,0,0,1-.21-.02ZM4.735,2.32A12.331,12.331,0,0,1,9.593,7.3a14.282,14.282,0,0,1,.679,1.306.776.776,0,0,1-.337.981l-1.26.727,5.21,1.321L15.34,6.466l-1.26.732a.774.774,0,0,1-1.059-.267A8.743,8.743,0,0,0,7.735,2.415a6.759,6.759,0,0,0-1.689-.209,7.8,7.8,0,0,0-1.309.114Z" transform="translate(1254.107 466.655) rotate(26)" fill="#0e5907" stroke="#0e5907" stroke-width="4"/>
    <path id="Import-2" data-name="Import" d="M14.651,14.21,5.922,11.988a.844.844,0,0,1-.633-.716.87.87,0,0,1,.438-.87L8.272,8.931Q8.11,8.62,7.93,8.319C6.739,6.255,4.242,2.809.869,2.861a.855.855,0,0,1-.758-.428,1.534,1.534,0,0,1-.085-.2.885.885,0,0,1,.416-.981A10.678,10.678,0,0,1,7.84.268,11.072,11.072,0,0,1,14.39,5.4L16.9,3.953A.87.87,0,0,1,17.868,4a.84.84,0,0,1,.306.9l-2.445,8.674a.889.889,0,0,1-.87.651.957.957,0,0,1-.21-.02ZM4.735,2.32A12.331,12.331,0,0,1,9.593,7.3a14.282,14.282,0,0,1,.679,1.306.776.776,0,0,1-.337.981l-1.26.727,5.21,1.321L15.34,6.466l-1.26.732a.774.774,0,0,1-1.059-.267A8.743,8.743,0,0,0,7.735,2.415a6.759,6.759,0,0,0-1.689-.209,7.8,7.8,0,0,0-1.309.114Z" transform="translate(1254.107 466.655) rotate(26)" fill="#f9f9f9"/>
  </g>
</svg>
