<svg id="Groupe_6" data-name="Groupe 6" xmlns="http://www.w3.org/2000/svg" width="15" height="13.636" viewBox="0 0 59 54">
  <!-- <path id="Rectangle_3200" data-name="Rectangle 3200" d="M10,0H44A10,10,0,0,1,54,10V59a0,0,0,0,1,0,0H0a0,0,0,0,1,0,0V10A10,10,0,0,1,10,0Z" transform="translate(0 54) rotate(-90)" fill="#0e5907"/> -->
  <g id="motDePasse" transform="translate(19 13)">
    <path id="Tracé_1" data-name="Tracé 1" d="M8.286,20A2.287,2.287,0,0,0,6,22.286v3.429A2.287,2.287,0,0,0,8.286,28H19.714A2.287,2.287,0,0,0,22,25.714V22.286A2.287,2.287,0,0,0,19.714,20Zm.571,2.621a.57.57,0,0,1,.4.167l.4.4.4-.4a.571.571,0,0,1,.808.808l-.4.4.4.4a.571.571,0,0,1-.808.808l-.4-.4-.4.4a.571.571,0,0,1-.808-.808l.4-.4-.4-.4a.571.571,0,0,1,.4-.975Zm4.335,0a.57.57,0,0,1,.4.167l.4.4.4-.4a.571.571,0,0,1,.808.808l-.4.4.4.4a.571.571,0,0,1-.808.808l-.4-.4-.4.4a.571.571,0,0,1-.808-.808l.4-.4-.4-.4a.571.571,0,0,1,.4-.975Zm4.335,0a.57.57,0,0,1,.4.167l.4.4.4-.4a.571.571,0,0,1,.808.808l-.4.4.4.4a.571.571,0,0,1-.808.808l-.4-.4-.4.4a.571.571,0,0,1-.808-.808l.4-.4-.4-.4a.571.571,0,0,1,.4-.975Z" fill="#fff" fill-rule="evenodd"/>
    <path id="Tracé_2" data-name="Tracé 2" d="M8.575,13.509A1.8,1.8,0,0,1,10.8,16.332V18a1.2,1.2,0,0,1-2.4,0V16.332a1.788,1.788,0,0,1,.175-2.823ZM15.6,6V8.4A3.6,3.6,0,0,1,19.2,12v8.034l-2.4.017V12a1.2,1.2,0,0,0-1.2-1.2H3.6A1.2,1.2,0,0,0,2.4,12v8.4a1.2,1.2,0,0,0,1.2,1.2H6.8L6.814,24H3.6A3.6,3.6,0,0,1,0,20.4V12A3.6,3.6,0,0,1,3.6,8.4V6a6,6,0,0,1,12,0ZM7.054,3.454A3.6,3.6,0,0,0,6,6V8.4h7.2V6A3.6,3.6,0,0,0,7.054,3.454Z" fill="#fff" fill-rule="evenodd"/>
  </g>
</svg>
