<svg xmlns="http://www.w3.org/2000/svg" width="23.446" height="42.872" viewBox="0 0 23.446 42.872">
  <path id="phone" d="M134.24,0H120.005A4.614,4.614,0,0,0,115.4,4.605V38.267a4.614,4.614,0,0,0,4.605,4.605H134.24a4.614,4.614,0,0,0,4.605-4.605V4.605A4.608,4.608,0,0,0,134.24,0ZM125.39,1.892h3.534a.791.791,0,0,1,.737.837.791.791,0,0,1-.737.837H125.39a.791.791,0,0,1-.737-.837A.791.791,0,0,1,125.39,1.892Zm-3.341-.126a.959.959,0,1,1-.963.955A.951.951,0,0,1,122.049,1.767Zm5.108,38.183a1.541,1.541,0,1,1,1.541-1.541A1.537,1.537,0,0,1,127.156,39.95Zm9.01-3.986H118.088V5.577h18.078Z" transform="translate(-115.4)" fill="#f9f9f9"/>
</svg>
