<svg id="task-complete" xmlns="http://www.w3.org/2000/svg" width="34.445" height="42.872" viewBox="0 0 34.445 42.872">
  <path id="Tracé_22" data-name="Tracé 22" d="M17.617,6.17l.033.074a.652.652,0,0,0,.569.281H32.529A.643.643,0,0,0,33.1,6.23l.033-.074V4.736l-.007-.013V3.39L33.1,3.316a.651.651,0,0,0-.569-.275H29.085a1.42,1.42,0,0,1-1.025-.409.979.979,0,0,1-.295-.7,1.433,1.433,0,0,0-.08-.529A2.27,2.27,0,0,0,25.843.033,3.575,3.575,0,0,0,25.381,0a2.721,2.721,0,0,0-1.775.616,1.687,1.687,0,0,0-.63,1.266,1.08,1.08,0,0,1-.328.777,1.323,1.323,0,0,1-.965.382h-3.47a.616.616,0,0,0-.589.322l-.02.06v1.4l.007.013V6.17ZM18.2,16.553h3.229a.682.682,0,0,0,.683-.683V12.647a.686.686,0,0,0-.683-.683H18.2a.686.686,0,0,0-.683.683v3.222A.674.674,0,0,0,18.2,16.553Zm.683-3.222h1.856v1.849H18.883ZM17.51,22.293a.686.686,0,0,0,.683.683h3.229a.686.686,0,0,0,.683-.683V19.071a.686.686,0,0,0-.683-.683H18.193a.686.686,0,0,0-.683.683Zm1.373-2.539h1.856V21.6H18.883Zm3.229,8.97V25.5a.686.686,0,0,0-.683-.683H18.2a.686.686,0,0,0-.683.683v3.222a.686.686,0,0,0,.683.683h3.229A.686.686,0,0,0,22.112,28.724Zm-1.373-.69H18.883V26.185h1.856Zm11.8-14.463H23.921a.683.683,0,0,0,0,1.367h8.628a.683.683,0,1,0-.007-1.367Zm0,6.424H23.921a.683.683,0,0,0,0,1.367h8.628A.683.683,0,1,0,32.542,20Zm.69,7.114a.682.682,0,0,0-.683-.683H23.921a.683.683,0,0,0,0,1.367h8.628a.686.686,0,0,0,.683-.683Zm6.6,2.083a.17.17,0,0,1-.047-.013,7.1,7.1,0,0,0-2.4-.415c-.221,0-.435.007-.643.027a7.063,7.063,0,0,0-6.129,8.983c.013.047.027.087.04.127a7.078,7.078,0,0,0,1.42,2.539,6.98,6.98,0,0,0,5.305,2.432A7.059,7.059,0,0,0,39.83,29.193Zm1.708,4.6-5,5.017a.7.7,0,0,1-.489.2.656.656,0,0,1-.469-.181L33.245,36.7a.685.685,0,0,1,.924-1.012l1.849,1.695,4.548-4.562a.687.687,0,0,1,.971.971Z" transform="translate(-9.994 0)" fill="#f9f9f9"/>
  <path id="Tracé_23" data-name="Tracé 23" d="M25.777,40.749H10.3a.682.682,0,0,1-.683-.683V11.77a.682.682,0,0,1,.683-.683H33.031a.686.686,0,0,1,.683.683V29.408a8.19,8.19,0,0,1,1.956.241,7.546,7.546,0,0,1,1.373.469V9.339A3.229,3.229,0,0,0,33.822,6.11H30.452v2a1.56,1.56,0,0,1-1.634,1.46h-14.3a1.56,1.56,0,0,1-1.634-1.46v-2H9.512A3.229,3.229,0,0,0,6.29,9.339V40.414A3.222,3.222,0,0,0,9.512,43.63h18.06a8.494,8.494,0,0,1-1.8-2.88Z" transform="translate(-6.29 -2.017)" fill="#f9f9f9"/>
  <path id="Tracé_24" data-name="Tracé 24" d="M18.733,50.78a.683.683,0,1,0,0,1.367h.945a.683.683,0,1,0,0-1.367Zm3.316,1.373h.945a.683.683,0,1,0,0-1.367h-.945a.683.683,0,1,0,0,1.367Zm3.316-1.373a.683.683,0,1,0,0,1.367h.945a.683.683,0,1,0,0-1.367Z" transform="translate(-10.172 -16.764)" fill="#f9f9f9"/>
</svg>
